<?xml version="1.0" encoding="utf-8"?>
<!-- Generator: Adobe Illustrator 21.0.0, SVG Export Plug-In . SVG Version: 6.00 Build 0)  -->
<!DOCTYPE svg PUBLIC "-//W3C//DTD SVG 1.1//EN" "http://www.w3.org/Graphics/SVG/1.1/DTD/svg11.dtd">
<svg version="1.1" id="Layer_1" xmlns="http://www.w3.org/2000/svg" xmlns:xlink="http://www.w3.org/1999/xlink" x="0px" y="0px"
	 width="595.3px" height="595.3px" viewBox="0 0 595.3 595.3" enable-background="new 0 0 595.3 595.3" xml:space="preserve">
<g>
	<path fill="#3C3533" d="M358.2,310.5c0,33.1-26.9,60-60,60h-1.1c-33.1,0-60-26.9-60-60v-42.1h-15V312c0,41.2,33.5,74.7,74.7,74.7
		h1.6c41.2,0,74.7-33.5,74.7-74.7v-43.5h-15V310.5z"/>
	<path fill="#3C3533" d="M297.1,360.7h1.1c27.7,0,50.2-22.5,50.2-50.2v-93.9c0-27.7-22.5-50.2-50.2-50.2h-1.1
		c-27.7,0-50.2,22.5-50.2,50.2v93.9C246.9,338.2,269.4,360.7,297.1,360.7z"/>
	<path fill="#3C3533" d="M297.6,81.4c-119.4,0-216.3,96.8-216.3,216.3c0,119.4,96.8,216.3,216.3,216.3s216.3-96.8,216.3-216.3
		C513.9,178.2,417.1,81.4,297.6,81.4z M391.3,268.5h-8.4V312c0,45.2-35.7,82.2-80.4,84.4v32.5h42c2.7,0,4.9,2.2,4.9,4.9
		c0,2.7-2.2,4.9-4.9,4.9h-93.8c-2.7,0-4.9-2.2-4.9-4.9c0-2.7,2.2-4.9,4.9-4.9h42.1v-32.5c-44.7-2.1-80.4-39.2-80.4-84.4v-43.5H204
		c-2.7,0-4.9-2.2-4.9-4.9c0-2.7,2.2-4.9,4.9-4.9h33.2v-42.1c0-33.1,26.9-60,60-60h1.1c33.1,0,60,26.9,60,60v42.1h33.2
		c2.7,0,4.9,2.2,4.9,4.9C396.2,266.3,394,268.5,391.3,268.5z"/>
</g>
</svg>
