<?xml version="1.0" encoding="utf-8"?>
<!-- Generator: Adobe Illustrator 16.0.3, SVG Export Plug-In . SVG Version: 6.00 Build 0)  -->
<!DOCTYPE svg PUBLIC "-//W3C//DTD SVG 1.1//EN" "http://www.w3.org/Graphics/SVG/1.1/DTD/svg11.dtd">
<svg version="1.1" id="Layer_1" xmlns="http://www.w3.org/2000/svg" xmlns:xlink="http://www.w3.org/1999/xlink" x="0px" y="0px"
	 width="595.3px" height="595.3px" viewBox="0 0 595.3 595.3" enable-background="new 0 0 595.3 595.3" xml:space="preserve">
<g>
	<path d="M297.6,231.6c-36.4,0-66.1,29.6-66.1,66.1c0,36.4,29.6,66.1,66.1,66.1c36.4,0,66.1-29.6,66.1-66.1
		C363.7,261.2,334.1,231.6,297.6,231.6z M297.6,358.4c-33.5,0-60.7-27.2-60.7-60.7c0-33.5,27.2-60.7,60.7-60.7
		c33.5,0,60.7,27.2,60.7,60.7C358.4,331.1,331.1,358.4,297.6,358.4z"/>
	<path d="M297.6,243.3c-30,0-54.4,24.4-54.4,54.4c0,30,24.4,54.4,54.4,54.4s54.4-24.4,54.4-54.4C352,267.6,327.6,243.3,297.6,243.3z
		 M297.6,346.7c-27,0-49-22-49-49s22-49,49-49s49,22,49,49S324.7,346.7,297.6,346.7z"/>
	<path d="M297.6,269.5c-0.9,0-1.6,0.7-1.6,1.6s0.7,1.6,1.6,1.6c13.7,0,24.9,11.2,24.9,24.9c0,0.9,0.7,1.6,1.6,1.6s1.6-0.7,1.6-1.6
		C325.7,282.1,313.1,269.5,297.6,269.5z"/>
	<path d="M297.6,261.5c-0.9,0-1.6,0.7-1.6,1.6s0.7,1.6,1.6,1.6c18.2,0,33,14.8,33,33c0,0.9,0.7,1.6,1.6,1.6c0.9,0,1.6-0.7,1.6-1.6
		C333.8,277.7,317.6,261.5,297.6,261.5z"/>
	<path d="M297.6,253.4c-0.9,0-1.6,0.7-1.6,1.6s0.7,1.6,1.6,1.6c22.6,0,41,18.4,41,41c0,0.9,0.7,1.6,1.6,1.6s1.6-0.7,1.6-1.6
		C341.9,273.2,322.1,253.4,297.6,253.4z"/>
	<path d="M297.6,277.1c-11.3,0-20.5,9.2-20.5,20.5c0,11.3,9.2,20.5,20.5,20.5c11.3,0,20.5-9.2,20.5-20.5
		C318.2,286.3,309,277.1,297.6,277.1z M297.6,315c-9.5,0-17.3-7.8-17.3-17.3s7.8-17.3,17.3-17.3c9.5,0,17.3,7.8,17.3,17.3
		S307.2,315,297.6,315z"/>
	<path d="M297.6,308.3c-5.9,0-10.7-4.8-10.7-10.7c0-0.9-0.7-1.6-1.6-1.6s-1.6,0.7-1.6,1.6c0,7.7,6.2,13.9,13.9,13.9
		c0.9,0,1.6-0.7,1.6-1.6S298.5,308.3,297.6,308.3z"/>
	<path d="M385.2,297.6c0-16.8-4.7-33-13.7-47c3.7-3.1,5.9-7.7,5.9-12.6c0-9-7.3-16.3-16.3-16.3c-4.6,0-8.9,1.9-11.9,5.2
		c-15-11-32.8-16.7-51.5-16.7c-18.7,0-36.5,5.8-51.5,16.7c-3.1-3.3-7.3-5.2-11.9-5.2c-9,0-16.3,7.3-16.3,16.3
		c0,4.9,2.2,9.5,5.9,12.6c-9,14.1-13.7,30.3-13.7,47c0,16.2,4.4,31.9,12.8,45.6c-3.2,3.1-5,7.3-5,11.8c0,9,7.3,16.3,16.3,16.3
		c3.9,0,7.7-1.4,10.6-3.9c15.3,11.6,33.5,17.7,52.8,17.7c19.3,0,37.5-6.1,52.8-17.7c2.9,2.5,6.7,3.9,10.6,3.9
		c9,0,16.3-7.3,16.3-16.3c0-4.5-1.9-8.7-5-11.8C380.7,329.5,385.2,313.8,385.2,297.6z M361,366c-3.2,0-6.3-1.4-8.4-3.9
		c-0.9-1.1-2.6-1.3-3.7-0.4c-14.7,11.8-32.4,18-51.3,18c-18.9,0-36.6-6.2-51.3-18c-0.5-0.4-1.1-0.6-1.7-0.6c-0.8,0-1.5,0.3-2.1,0.9
		c-2.1,2.5-5.1,3.9-8.4,3.9c-6,0-11-4.9-11-11c0-3.6,1.8-7,4.7-9c1.2-0.8,1.5-2.5,0.7-3.7c-8.7-13.3-13.2-28.8-13.2-44.7
		c0-16.6,4.9-32.6,14.2-46.2c0.4-0.6,0.6-1.4,0.4-2.1c-0.2-0.7-0.6-1.4-1.3-1.7c-3.4-1.9-5.6-5.6-5.6-9.5c0-6,4.9-11,11-11
		c3.7,0,7.1,1.9,9.2,5c0.4,0.6,1.1,1.1,1.8,1.2c0.7,0.1,1.5-0.1,2.1-0.5c14.5-11.3,31.9-17.2,50.3-17.2c18.4,0,35.8,6,50.3,17.2
		c0.6,0.5,1.4,0.7,2.1,0.5c0.7-0.1,1.4-0.6,1.8-1.2c2-3.1,5.5-5,9.2-5c6,0,11,4.9,11,11c0,3.9-2.1,7.6-5.6,9.5
		c-0.7,0.4-1.1,1-1.3,1.7c-0.2,0.7,0,1.5,0.4,2.1c9.3,13.7,14.2,29.6,14.2,46.2c0,15.9-4.6,31.4-13.2,44.7c-0.8,1.2-0.5,2.8,0.7,3.7
		c3,2.1,4.7,5.4,4.7,9C372,361.1,367.1,366,361,366z"/>
	<path d="M234.2,243.3c2.9,0,5.3-2.4,5.3-5.3c0-2.9-2.4-5.3-5.3-5.3c-2.9,0-5.3,2.4-5.3,5.3C228.9,240.9,231.3,243.3,234.2,243.3z
		 M234.2,235.9c1.2,0,2.1,1,2.1,2.1s-1,2.1-2.1,2.1c-1.2,0-2.1-1-2.1-2.1S233.1,235.9,234.2,235.9z"/>
	<path d="M361,243.3c2.9,0,5.3-2.4,5.3-5.3c0-2.9-2.4-5.3-5.3-5.3c-2.9,0-5.3,2.4-5.3,5.3C355.7,240.9,358.1,243.3,361,243.3z
		 M361,235.9c1.2,0,2.1,1,2.1,2.1s-1,2.1-2.1,2.1c-1.2,0-2.1-1-2.1-2.1S359.9,235.9,361,235.9z"/>
	<path d="M234.2,349c-2.9,0-5.3,2.4-5.3,5.3c0,2.9,2.4,5.3,5.3,5.3c2.9,0,5.3-2.4,5.3-5.3C239.6,351.4,237.2,349,234.2,349z
		 M234.2,356.5c-1.2,0-2.1-1-2.1-2.1c0-1.2,1-2.1,2.1-2.1c1.2,0,2.1,1,2.1,2.1C236.4,355.5,235.4,356.5,234.2,356.5z"/>
	<path d="M361,349c-2.9,0-5.3,2.4-5.3,5.3c0,2.9,2.4,5.3,5.3,5.3c2.9,0,5.3-2.4,5.3-5.3C366.4,351.4,364,349,361,349z M361,356.5
		c-1.2,0-2.1-1-2.1-2.1c0-1.2,1-2.1,2.1-2.1c1.2,0,2.1,1,2.1,2.1C363.2,355.5,362.2,356.5,361,356.5z"/>
</g>
</svg>
