<?xml version="1.0" encoding="utf-8"?>
<!-- Generator: Adobe Illustrator 16.0.3, SVG Export Plug-In . SVG Version: 6.00 Build 0)  -->
<!DOCTYPE svg PUBLIC "-//W3C//DTD SVG 1.1//EN" "http://www.w3.org/Graphics/SVG/1.1/DTD/svg11.dtd">
<svg version="1.1" id="Layer_1" xmlns="http://www.w3.org/2000/svg" xmlns:xlink="http://www.w3.org/1999/xlink" x="0px" y="0px"
	 width="595.3px" height="595.3px" viewBox="0 0 595.3 595.3" enable-background="new 0 0 595.3 595.3" xml:space="preserve">
<g>
	<path fill="#56595C" d="M227.8,262.5v-51.4c0-5.4-4.4-9.8-9.8-9.8c-5.4,0-9.8,4.4-9.8,9.8v52.4c-10.3,4.4-17.5,14.5-17.5,26.4
		c0,11.8,7.2,22,17.5,26.4v67.9c0,5.4,4.4,9.8,9.8,9.8c5.4,0,9.8-4.4,9.8-9.8v-66.9c11.7-3.6,20.2-14.5,20.2-27.4
		C248,277.1,239.5,266.2,227.8,262.5z M227.8,292.9c-1.2,3.5-4.6,6-8.5,6c-5,0-9-4-9-9c0-5,4-9,9-9c3.9,0,7.2,2.5,8.5,6
		c0.3,0.9,0.5,2,0.5,3S228.2,292,227.8,292.9z"/>
	<path fill="#56595C" d="M306.8,311.9V211.1c0-5.4-4.4-9.8-9.8-9.8s-9.8,4.4-9.8,9.8v100.8c-11,4-18.8,14.6-18.8,26.9
		c0,12.3,7.8,22.9,18.8,26.9v18.4c0,5.4,4.4,9.8,9.8,9.8s9.8-4.4,9.8-9.8v-18.4c11-4,18.8-14.6,18.8-26.9
		C325.6,326.5,317.8,315.9,306.8,311.9z M297,347.8c-5,0-9-4-9-9c0-5,4-9,9-9c5,0,9,4,9,9C306,343.8,301.9,347.8,297,347.8z"/>
	<path fill="#56595C" d="M385.7,221.9v-10.8c0-5.4-4.4-9.8-9.8-9.8c-5.4,0-9.8,4.4-9.8,9.8v10.8c-11,4-18.8,14.6-18.8,26.9
		c0,12.3,7.8,22.9,18.8,26.9v108.4c0,5.4,4.4,9.8,9.8,9.8c5.4,0,9.8-4.4,9.8-9.8V275.7c11-4,18.8-14.6,18.8-26.9
		C404.5,236.5,396.7,225.9,385.7,221.9z M375.9,257.8c-5,0-9-4-9-9c0-5,4-9,9-9s9,4,9,9C384.9,253.8,380.9,257.8,375.9,257.8z"/>
	<path fill="#56595C" d="M419.6,141.1h-244c-19.1,0-34.6,15.5-34.6,34.6v244c0,19.1,15.5,34.6,34.6,34.6h244
		c19.1,0,34.6-15.5,34.6-34.6v-244C454.2,156.6,438.7,141.1,419.6,141.1z M434.5,419.6c0,8.2-6.7,14.9-14.9,14.9h-244
		c-8.2,0-14.9-6.7-14.9-14.9v-244c0-8.2,6.7-14.9,14.9-14.9h244c8.2,0,14.9,6.7,14.9,14.9V419.6z"/>
</g>
</svg>
